<?xml version="1.0" standalone="no"?>
<!DOCTYPE svg PUBLIC "-//W3C//DTD SVG 20010904//EN"
 "http://www.w3.org/TR/2001/REC-SVG-20010904/DTD/svg10.dtd">
<svg version="1.0" xmlns="http://www.w3.org/2000/svg"
 width="1024.000000pt" height="1024.000000pt" viewBox="0 0 1024.000000 1024.000000"
 preserveAspectRatio="xMidYMid meet">
<metadata>
Created by potrace 1.11, written by Peter Selinger 2001-2013
</metadata>
<g transform="translate(0.000000,1024.000000) scale(0.100000,-0.100000)"
fill="#000000" stroke="none">
<path d="M7039 10206 c-2 -3 -32 -7 -67 -10 -75 -6 -173 -31 -221 -56 -55 -27
-75 -55 -74 -100 1 -68 36 -100 168 -155 49 -20 102 -46 118 -57 34 -25 56
-70 49 -104 -7 -36 -59 -81 -119 -104 -52 -19 -73 -25 -148 -37 -54 -10 -387
-9 -500 0 -49 4 -121 9 -160 12 -38 3 -86 7 -105 10 -19 2 -64 7 -100 10 -36
3 -77 8 -92 11 -77 12 -101 16 -193 34 -55 10 -153 30 -217 44 -64 14 -127 27
-140 30 -13 3 -68 14 -123 26 -55 12 -110 24 -122 26 -13 2 -35 6 -50 9 -40 7
-162 26 -255 40 -249 36 -416 47 -698 48 -204 1 -359 -5 -481 -19 -57 -6 -190
-24 -215 -28 -10 -2 -37 -7 -59 -11 -22 -4 -51 -9 -65 -12 -451 -82 -922 -290
-1256 -554 -100 -80 -255 -235 -317 -319 -27 -36 -54 -72 -61 -81 -8 -9 -34
-54 -59 -100 -244 -453 -108 -892 350 -1127 106 -55 357 -143 471 -167 10 -2
38 -8 63 -14 202 -46 477 -62 588 -34 80 20 141 73 141 121 0 28 -5 34 -62 60
-35 16 -99 39 -143 51 -262 74 -461 236 -524 426 -75 230 -41 500 92 719 185
305 583 556 1017 641 411 81 714 65 1150 -60 158 -46 233 -71 695 -240 303
-111 936 -268 1370 -340 17 -3 53 -10 80 -15 28 -5 72 -12 98 -15 27 -4 56 -8
65 -9 10 -2 44 -7 77 -11 33 -5 67 -9 75 -10 8 -1 47 -5 85 -9 39 -4 80 -9 92
-11 151 -24 698 -24 838 0 42 8 126 24 150 29 241 51 465 173 584 316 209 251
151 588 -137 793 -190 135 -553 259 -917 313 -22 3 -51 8 -65 10 -14 2 -52 6
-85 10 -33 3 -71 8 -85 11 -34 7 -494 15 -501 9z"/>
<path d="M7747 7914 c-1 -1 -40 -4 -87 -8 -99 -7 -155 -13 -225 -26 -27 -5
-64 -12 -82 -15 -66 -11 -254 -54 -408 -95 -88 -23 -167 -43 -175 -45 -8 -2
-78 -19 -155 -39 -77 -19 -151 -37 -165 -40 -14 -3 -90 -19 -170 -35 -152 -31
-350 -66 -435 -76 -27 -3 -66 -8 -85 -10 -19 -3 -92 -7 -161 -9 -252 -9 -368
-44 -352 -108 13 -48 110 -108 197 -122 21 -4 41 -8 45 -10 7 -5 93 -13 216
-22 177 -13 494 -7 635 11 19 2 55 7 80 9 57 6 87 11 300 47 96 16 190 32 209
35 18 3 42 7 53 9 75 15 155 20 308 19 147 0 188 -3 260 -22 111 -29 179 -63
235 -118 66 -64 88 -120 89 -224 0 -124 -26 -172 -172 -311 -27 -26 -167 -111
-287 -173 -228 -120 -255 -144 -217 -195 24 -32 79 -49 217 -67 50 -7 277 -6
325 1 206 29 341 70 518 157 140 68 253 148 357 252 321 322 379 664 154 910
-102 112 -262 206 -429 252 -64 17 -142 35 -180 40 -25 3 -47 8 -50 9 -13 8
-354 26 -363 19z"/>
<path d="M4538 6965 c-2 -2 -17 -5 -33 -8 -48 -7 -163 -69 -252 -135 -148
-110 -353 -331 -494 -532 -147 -210 -246 -433 -289 -650 -5 -30 -13 -66 -16
-80 -17 -75 -11 -353 10 -456 4 -20 -5 -24 -104 -48 -118 -29 -292 -95 -355
-134 -203 -126 -398 -395 -468 -647 -37 -130 -39 -145 -42 -305 -3 -153 8
-258 43 -395 12 -43 20 -80 19 -80 -1 -1 -40 -14 -87 -29 -207 -66 -545 -259
-628 -357 -148 -177 -244 -404 -286 -680 -14 -93 -15 -389 -2 -454 3 -16 13
-66 22 -109 31 -162 99 -332 194 -491 23 -38 49 -83 59 -99 36 -63 193 -266
261 -339 264 -281 692 -509 1245 -663 125 -34 483 -118 555 -129 19 -3 60 -10
90 -15 82 -15 96 -17 215 -36 61 -9 118 -18 127 -19 9 -2 48 -7 85 -10 37 -4
75 -8 83 -10 104 -26 870 -26 1010 0 8 1 42 6 75 9 33 4 71 9 85 11 14 2 43 7
65 10 75 11 110 17 175 31 14 3 36 7 50 10 14 3 79 18 145 35 612 153 1178
460 1550 842 123 126 148 155 235 278 83 118 96 138 153 254 53 108 85 194
103 278 13 63 18 96 30 197 5 49 5 283 -1 355 -9 114 -21 186 -50 308 -44 187
-138 346 -281 475 -101 91 -293 199 -457 257 -62 22 -77 31 -72 44 13 32 25
127 25 194 0 167 -67 346 -185 496 -135 171 -347 322 -530 377 -33 10 -62 19
-64 20 -2 2 10 36 27 76 149 360 33 777 -274 985 -75 51 -126 77 -233 118 -93
36 -292 87 -430 111 -47 9 -95 17 -106 19 -248 43 -487 145 -606 258 -124 117
-187 287 -239 637 -18 117 -22 135 -36 165 -16 35 -47 57 -86 60 -15 1 -28 1
-30 0z"/>
<path d="M2093 6911 c-85 -41 -136 -108 -200 -266 -20 -49 -38 -79 -45 -77
-38 11 -116 8 -153 -5 -82 -28 -165 -126 -165 -197 0 -14 -3 -26 -7 -27 -5 0
-64 -2 -133 -4 -145 -3 -214 -23 -270 -79 -46 -46 -53 -55 -66 -93 -43 -118
49 -237 183 -235 102 1 163 34 283 155 66 67 77 74 90 62 9 -8 38 -24 65 -36
119 -53 256 -4 317 114 21 40 27 115 16 196 -3 21 3 26 41 38 72 21 204 89
239 124 48 47 82 119 82 173 0 149 -133 225 -277 157z"/>
<path d="M8174 5801 c-90 -41 -121 -134 -84 -250 22 -68 107 -146 231 -210 57
-30 105 -55 106 -56 1 0 -8 -27 -21 -59 -53 -129 6 -270 133 -324 92 -38 211
-7 278 74 l37 43 50 -47 c74 -69 150 -122 212 -147 141 -57 292 11 308 138 12
99 -74 204 -189 231 -48 12 -183 7 -275 -9 -47 -8 -85 -15 -86 -15 0 0 -6 17
-12 39 -17 55 -83 126 -139 147 -27 11 -71 18 -105 17 -55 -1 -58 1 -64 26
-42 187 -83 290 -140 345 -70 69 -165 92 -240 57z"/>
<path d="M1714 5534 c-88 -18 -202 -47 -254 -64 -135 -44 -324 -139 -416 -208
-80 -61 -95 -75 -149 -147 -162 -212 -72 -506 195 -637 203 -99 417 -127 502
-67 83 59 62 135 -61 218 -102 70 -143 139 -144 241 -1 101 25 164 97 235 58
57 185 135 221 135 8 0 15 5 15 12 0 6 3 9 6 6 6 -7 138 48 232 95 193 98 188
208 -9 212 -53 2 -125 -8 -235 -31z"/>
</g>
</svg>
